Coordinates
version=1
nRows=17
nColumns=24
inDegrees=yes

Units are S.I. units (second, meters, Newtons, ...)
Angles are in degrees.

endheader
time	pelvis_tilt	pelvis_list	pelvis_rotation	pelvis_tx	pelvis_ty	pelvis_tz	hip_flexion_r	hip_adduction_r	hip_rotation_r	knee_angle_r	ankle_angle_r	subtalar_angle_r	mtp_angle_r	hip_flexion_l	hip_adduction_l	hip_rotation_l	knee_angle_l	ankle_angle_l	subtalar_angle_l	mtp_angle_l	lumbar_extension	lumbar_bending	lumbar_rotation
      3.58000000	     -8.85768345	      0.21863946	     -0.36213290	     -1.79655476	     -0.01212852	      0.42304747	      2.14914267	      3.34620089	      5.87768025	     -9.20028168	      2.49826984	     -7.13371041	      2.19355135	     33.31905847	     -1.31360496	     -1.35028206	    -40.47090358	     -4.29718443	     -1.01604936	     21.53253092	      6.74920052	     -1.97181383	      3.78586193
      3.58500000	     -8.93475670	      0.33782135	     -0.66991958	     -1.79091354	     -0.01268459	      0.42318553	      1.82988486	      3.22632234	      6.00458543	     -9.17132804	      2.71297980	     -6.99633600	      2.25508356	     33.46675302	     -1.37892968	     -1.47817719	    -38.73171244	     -4.10854820	     -0.70780759	     21.23543525	      6.76376987	     -2.01154603	      4.05490100
      3.59000000	     -8.91036691	      0.42395702	     -1.09085617	     -1.78528384	     -0.01314948	      0.42339579	      1.41711402	      3.13694924	      6.15056267	     -9.15564778	      2.96171319	     -6.69485176	      2.33564315	     33.46817107	     -1.55508126	     -1.75248651	    -36.96695741	     -3.87509852	     -0.37010591	     20.77342173	      6.66708554	     -1.98872220	      4.47620429
      3.59500000	     -8.94282853	      0.51980629	     -1.46072742	     -1.77962436	     -0.01369880	      0.42353413	      1.07842753	      3.03514396	      6.24493790	     -9.17238862	      3.19952399	     -6.45650458	      2.40548934	     33.49315556	     -1.68947005	     -1.92739229	    -35.13656968	     -3.67593879	      0.00782565	     20.37250482	      6.63412723	     -1.98522556	      4.80982132
      3.60000000	     -8.98880627	      0.60963609	     -1.83629172	     -1.77394795	     -0.01427404	      0.42367232	      0.76585372	      2.93901651	      6.32684486	     -9.20981868	      3.41928840	     -6.22588845	      2.48679265	     33.49769949	     -1.83840000	     -2.08831252	    -33.25825964	     -3.52394492	      0.39209132	     20.00701166	      6.61740570	     -1.97744745	      5.13706798
      3.60500000	     -9.07350164	      0.70740594	     -2.18956179	     -1.76825667	     -0.01491461	      0.42375942	      0.50775668	      2.83252853	      6.41213444	     -9.27477120	      3.62639985	     -6.05666827	      2.57797900	     33.50930214	     -1.96762795	     -2.19005630	    -31.33101182	     -3.42554555	      0.77854622	     19.70323694	      6.64121971	     -1.97603264	      5.40192536
      3.61000000	     -9.06611610	      0.77756947	     -2.61673049	     -1.76256179	     -0.01545442	      0.42391273	      0.16816562	      2.74834826	      6.46264047	     -9.36030402	      3.84408795	     -5.75177953	      2.67465847	     33.38576666	     -2.17102002	     -2.39630582	    -29.38950752	     -3.30840250	      1.14539480	     19.25991205	      6.56559512	     -1.93924245	      5.79713696
      3.61500000	     -9.14025711	      0.86142300	     -2.99463707	     -1.75675718	     -0.01611363	      0.42397883	     -0.09666374	      2.64547240	      6.53149437	     -9.43884851	      4.03650150	     -5.53621938	      2.76335149	     33.31960318	     -2.33349621	     -2.52975448	    -27.42291889	     -3.23182718	      1.49887010	     18.88430014	      6.59300954	     -1.91613289	      6.08762229
      3.62000000	     -9.20012067	      0.93625060	     -3.39657866	     -1.75100332	     -0.01677578	      0.42406961	     -0.34675015	      2.54953291	      6.63228817	     -9.56853300	      4.23252033	     -5.31444710	      2.87136408	     33.21662977	     -2.51896840	     -2.65502919	    -25.45633583	     -3.19479453	      1.84464130	     18.48021355	      6.59456455	     -1.88338852	      6.38538336
      3.62500000	     -9.24143743	      0.99656758	     -3.80606760	     -1.74518160	     -0.01744257	      0.42413038	     -0.61713255	      2.45940883	      6.71785773	     -9.70270724	      4.41266926	     -5.06754343	      2.97353841	     33.07141401	     -2.71995792	     -2.80477218	    -23.50493806	     -3.15718994	      2.16089431	     18.01736701	      6.58508747	     -1.83068548	      6.70060989
      3.63000000	     -9.28513718	      1.04566300	     -4.20901579	     -1.73930923	     -0.01813963	      0.42417591	     -0.88357812	      2.37520524	      6.81019075	     -9.84581942	      4.58095315	     -4.82604483	      3.06753951	     32.90995424	     -2.92653578	     -2.94459467	    -21.57501382	     -3.13101901	      2.45843905	     17.52387989	      6.58331240	     -1.76956462	      6.99032688
      3.63500000	     -9.32591467	      1.08274639	     -4.61531085	     -1.73338364	     -0.01886556	      0.42420043	     -1.14960367	      2.29541065	      6.92260426	    -10.00350963	      4.73671470	     -4.58722675	      3.16029840	     32.72862544	     -3.14072257	     -3.07878901	    -19.67819124	     -3.11644832	      2.72887070	     17.00904779	      6.58385598	     -1.69428025	      7.27012630
      3.64000000	     -9.28305590	      1.14830603	     -4.98062967	     -1.72732828	     -0.01950542	      0.42417665	     -1.52070816	      2.16555302	      6.96732653	    -10.14809125	      4.90768760	     -4.27667371	      3.20559245	     32.44127528	     -3.29459707	     -3.24288221	    -17.82828653	     -3.08334795	      3.06491438	     16.32306165	      6.51289097	     -1.66356565	      7.50970751
      3.64500000	     -9.35469802	      1.15666314	     -5.40444562	     -1.72130288	     -0.02029159	      0.42415726	     -1.74986261	      2.10025181	      7.17232658	    -10.32462063	      5.00722982	     -4.05481661	      3.30805372	     32.26423234	     -3.52905924	     -3.35914468	    -16.01640767	     -3.15938565	      3.21822499	     15.86240410	      6.55835155	     -1.54724852	      7.79010937
      3.65000000	     -9.36635395	      1.21536154	     -5.81794460	     -1.71516902	     -0.02100766	      0.42413169	     -2.04003251	      1.96572946	      7.36892792	    -10.51232981	      5.11776426	     -3.81806894	      3.41851505	     32.00276279	     -3.69467848	     -3.49036446	    -14.25319823	     -3.26361683	      3.34801599	     15.37288829	      6.55773487	     -1.49320616	      8.04513631
      3.65500000	     -9.35487607	      1.27910344	     -6.20951715	     -1.70897170	     -0.02169393	      0.42407095	     -2.35147829	      1.81448156	      7.56084745	    -10.71251103	      5.20747754	     -3.57444339	      3.53280606	     31.71559232	     -3.82962064	     -3.58072674	    -12.57393982	     -3.39397890	      3.45004278	     14.89931260	      6.54083636	     -1.45330985	      8.26924727
      3.66000000	     -9.32722005	      1.36119811	     -6.57755496	     -1.70270620	     -0.02234095	      0.42395440	     -2.67756571	      1.63041459	      7.74898027	    -10.91899429	      5.27477218	     -3.32072738	      3.65667306	     31.41688045	     -3.91966485	     -3.64280975	    -10.99530184	     -3.56984966	      3.53117222	     14.44547917	      6.51733462	     -1.43740652	      8.46924793
